<svg width="16" height="16" viewBox="0 0 16 16" fill="none" xmlns="http://www.w3.org/2000/svg">
<g id="baseline-error_outline-24px" opacity="0.5" clip-path="url(#clip0_0_1406)">
<path id="Vector" d="M7.33331 10H8.66665V11.3334H7.33331V10ZM7.33331 4.66671H8.66665V8.66671H7.33331V4.66671ZM7.99331 1.33337C4.31331 1.33337 1.33331 4.32004 1.33331 8.00004C1.33331 11.68 4.31331 14.6667 7.99331 14.6667C11.68 14.6667 14.6666 11.68 14.6666 8.00004C14.6666 4.32004 11.68 1.33337 7.99331 1.33337ZM7.99998 13.3334C5.05331 13.3334 2.66665 10.9467 2.66665 8.00004C2.66665 5.05337 5.05331 2.66671 7.99998 2.66671C10.9466 2.66671 13.3333 5.05337 13.3333 8.00004C13.3333 10.9467 10.9466 13.3334 7.99998 13.3334Z" fill="black"/>
</g>
<defs>
<clipPath id="clip0_0_1406">
<rect width="16" height="16" fill="white"/>
</clipPath>
</defs>
</svg>
