<svg width="16" height="16" viewBox="0 0 16 16" fill="none" xmlns="http://www.w3.org/2000/svg">
<g id="outline-work_outline-24px">
<path id="Vector" d="M9.33337 4.00001V2.66668H6.66671V4.00001H9.33337ZM2.66671 5.33334V12.6667H13.3334V5.33334H2.66671ZM13.3334 4.00001C14.0734 4.00001 14.6667 4.59334 14.6667 5.33334V12.6667C14.6667 13.4067 14.0734 14 13.3334 14H2.66671C1.92671 14 1.33337 13.4067 1.33337 12.6667L1.34004 5.33334C1.34004 4.59334 1.92671 4.00001 2.66671 4.00001H5.33337V2.66668C5.33337 1.92668 5.92671 1.33334 6.66671 1.33334H9.33337C10.0734 1.33334 10.6667 1.92668 10.6667 2.66668V4.00001H13.3334Z" fill="#495057"/>
</g>
</svg>
